<svg xmlns="http://www.w3.org/2000/svg" width="512" height="512" viewBox="0 0 512 512" data-svgdocument="" id="_1UJPbwqPRftl7IA4KIUh6" class="fl-svgdocument" x="0" y="0" overflow="hidden" style="overflow: visible;"><defs id="_T-7rLF92gXIkGFh9-zKiC" transform="matrix(0.674822710454464, 0, 0, 0.674822710454464, -2.5468454360961914, 37.965117156505585)" data-uid="o_f4inkdnfj_5"><linearGradient id="o_f4inkdnfj_3" x1="0" y1="0.5" x2="1" y2="0.5" data-uid="o_f4inkdnfj_6"><stop id="_Th2EiC9IwwxdCqeB8e3lv" offset="0%" stop-color="rgb(76, 213, 237)" data-uid="o_f4inkdnfj_7"></stop><stop id="_8aHgDeKcvBG67WT8e1ReV" offset="100%" stop-color="rgb(50, 217, 94)" data-uid="o_f4inkdnfj_8"></stop></linearGradient></defs><path id="_35PPrCY4BPr8jTO2wdLSw" fill="#d6d6d6" transform="matrix(1.4311617016792297, 0, 0, 1.4311617016792297, 127.09244155883789, 82.1464729309082)" data-type="circle" data-cx="88.385" data-cy="88.385" data-r="88.385" d="M88.385,88.385m-88.385,0a88.385,88.385 0 1, 0 176.77,0a88.385,88.385 0 1, 0 -176.77,0" data-uid="o_f4inkdnfj_9"></path><path id="_zRDBB7nBmPxv--IKNkPKj" fill="url(#o_f4inkdnfj_3)" transform="matrix(1.3859189599752426, 0, 0, 1.3859189599752426, 131.09122943878174, 85.61150288581848)" data-type="circle" data-cx="88.385" data-cy="88.385" data-r="88.385" d="M88.385,88.385m-88.385,0a88.385,88.385 0 1, 0 176.77,0a88.385,88.385 0 1, 0 -176.77,0" data-uid="o_f4inkdnfj_10"></path><g id="_aOWiOTkMAi3IJm11nV4oH" transform="matrix(0.6973489187657833, 0, 0, 0.6973489187657833, 79.27252197265625, 60.12597298622131)" data-uid="o_f4inkdnfj_11"><path id="_8ZGAivgjN9HK9Z919MH6w" d="M29.26 33.002c-0.621 0-1.241-0.234-1.719-0.705c-2.137-2.111-3.315-4.93-3.315-7.934c0-2.308 0.698-4.523 2.021-6.406     c0.775-1.104 2.3-1.37 3.403-0.595c1.103 0.776 1.37 2.3 0.595 3.403c-0.741 1.056-1.134 2.3-1.134 3.598     c0 1.687 0.661 3.272 1.865 4.459c0.959 0.949 0.969 2.494 0.021 3.455C30.519 32.76 29.888 33.002 29.26 33.002z" fill="#ffffff" transform="matrix(2.1315934658050537, 0, 0, 2.5016298294067383, 91.79936981201172, 148.36349487304688)" data-uid="o_f4inkdnfj_12"></path><path id="_M3CLKJjDdRwzN19G9HsaM" d="M23.948 36.944c-0.506 0-1.007-0.201-1.381-0.596c-3.097-3.277-4.802-7.564-4.802-12.077     c0-3.869 1.234-7.542 3.568-10.619c0.635-0.838 1.828-1 2.663-0.366c0.836 0.635 1 1.828 0.365 2.663     c-1.828 2.41-2.796 5.289-2.796 8.322c0 3.536 1.337 6.899 3.763 9.467c0.721 0.762 0.686 1.965-0.078 2.686     C24.885 36.772 24.416 36.944 23.948 36.944z" fill="#ffffff" transform="matrix(2.907989501953125, 0, 0, 3.4183614253997803, 69.94255828857422, 128.1735076904297)" data-uid="o_f4inkdnfj_13"></path><path id="_B6JNFqthG-rkON1AUeaUr" d="M18.637 40.883c-0.366 0-0.733-0.148-1.002-0.439c-4.08-4.445-6.327-10.221-6.327-16.26     c0-5.412 1.754-10.521 5.074-14.779c0.458-0.591 1.312-0.695 1.905-0.235c0.59 0.462 0.697 1.314 0.235 1.905     c-2.944 3.775-4.502 8.308-4.502 13.109c0 5.358 1.994 10.481 5.616 14.424c0.505 0.553 0.469 1.412-0.083 1.918     C19.293 40.764 18.963 40.883 18.637 40.883z" fill="#ffffff" transform="matrix(3.8720664978027344, 0, 0, 4.551699638366699, 56.576438903808594, 102.67405700683594)" data-uid="o_f4inkdnfj_14"></path><path id="_3hatt9m3OkS-mFEcqszLw" d="M70.62 33.002c0.619 0 1.24-0.234 1.717-0.705c2.139-2.111 3.316-4.93 3.316-7.934c0-2.308-0.697-4.523-2.021-6.406     c-0.775-1.104-2.301-1.37-3.404-0.595c-1.102 0.776-1.369 2.3-0.594 3.403c0.742 1.056 1.133 2.3 1.133 3.598     c0 1.687-0.66 3.272-1.865 4.459c-0.957 0.949-0.969 2.494-0.02 3.455C69.36 32.76 69.991 33.002 70.62 33.002z" fill="#ffffff" transform="matrix(2.1162800788879395, 0, 0, 2.487722158432007, 191.2110137939453, 150.18930053710938)" data-uid="o_f4inkdnfj_15"></path><path id="_RYksi2dB5tF4OYvCe5vNf" d="M75.93 36.944c0.506 0 1.006-0.201 1.381-0.596c3.098-3.277 4.801-7.564 4.801-12.077c0-3.869-1.234-7.542-3.568-10.619     c-0.635-0.838-1.828-1-2.662-0.366c-0.836 0.635-1 1.828-0.365 2.663c1.828 2.41 2.795 5.289 2.795 8.322     c0 3.536-1.336 6.899-3.762 9.467c-0.721 0.762-0.686 1.965 0.078 2.686C74.995 36.772 75.461 36.944 75.93 36.944z" fill="#ffffff" transform="matrix(3.1427204608917236, 0, 0, 3.6943721771240234, 116.59480285644531, 121.67121124267578)" data-uid="o_f4inkdnfj_16"></path><path id="_BtTg-m_nBvzAOKMwNU0LC" d="M81.243 40.883c0.365 0 0.732-0.148 1-0.439c4.08-4.445 6.328-10.221 6.328-16.26c0-5.412-1.754-10.521-5.074-14.779     c-0.459-0.591-1.312-0.695-1.906-0.235c-0.59 0.462-0.697 1.314-0.234 1.905c2.943 3.775 4.502 8.308 4.502 13.109     c0 5.358-1.994 10.481-5.617 14.424c-0.504 0.553-0.469 1.412 0.084 1.918C80.584 40.764 80.915 40.883 81.243 40.883z" fill="#ffffff" transform="matrix(3.8720664978027344, 0, 0, 4.551699638366699, 56.61635971069336, 102.67405700683594)" data-uid="o_f4inkdnfj_17"></path><path id="_IJhgCQgTfs3MLUH6z6Eds" d="M31.716 11.832v2.797h-0.027v59.523c-3.111-1.391-6.916-1.955-10.897-1.393c-9.153 1.293-15.768 8.035-14.775 15.064  c0.992 7.027 9.216 11.676 18.369 10.383c8.646-1.221 15.023-7.307 14.867-13.9h0.006V35.628c16.611-4.931 33.46-6.991 42.868-7.816  v36.465c-3.111-1.393-6.917-1.957-10.897-1.395c-9.153 1.293-15.768 8.037-14.775 15.064s9.216 11.678 18.369 10.385  c8.645-1.223 15.023-7.309 14.866-13.902h0.008V27.293V4.753V1.202C52.01-0.73 31.716 11.832 31.716 11.832z" fill="#ffffff" transform="matrix(1.319688081741333, 0, 0, 1.319688081741333, 173.11776733398438, 150.18495178222656)" data-uid="o_f4inkdnfj_18"></path></g><path text="Erzhan" text-anchor="middle" font-size="100" letter-spacing="0" side="left" offset="0.5" dx="0" dy="0" space="preserve" href="" font-family="Fjalla One" font-scale="contain" transform="matrix(0.56567757204175, 0, 0, 0.56567757204175, 252.78449058532715, 402.2900695800781)" x="0" y="0" fill="#000000" data-fl-textpath="" id="_pOilEPZmIBhIKvQXdAA4l" data-uid="o_f4inkdnfj_19" d="M-121.9471484375 0L-121.9471484375-83.4L-91.03714843750001-83.4L-91.03714843750001-73.44L-109.2971484375-73.44L-109.2971484375-48.49L-95.1871484375-48.49L-95.1871484375-38.53L-109.2971484375-38.53L-109.2971484375-9.96L-90.5471484375-9.96L-90.5471484375 0L-121.9471484375 0ZM-82.1998046875 0L-82.1998046875-67.24L-73.1698046875-67.24L-72.08980468749999-60.4Q-70.0398046875-64.21 -67.3798046875-66.11Q-64.7198046875-68.02 -61.9398046875-68.02L-61.9398046875-68.02Q-56.6198046875-68.02 -54.0798046875-64.75Q-51.5398046875-61.47 -51.5398046875-54.93L-51.5398046875-54.93Q-51.5398046875-54.1 -51.6598046875-52.95Q-51.7798046875-51.81 -51.9998046875-50.56Q-52.2198046875-49.32 -52.5398046875-48.07Q-52.8598046875-46.83 -53.1998046875-45.8L-53.1998046875-45.8L-61.789804687499995-45.8L-61.789804687499995-52.05Q-61.789804687499995-54.1 -62.059804687500005-55.42Q-62.3298046875-56.74 -62.7698046875-57.54Q-63.2098046875-58.35 -63.789804687499995-58.67Q-64.3798046875-58.98 -65.0598046875-58.98L-65.0598046875-58.98Q-66.5298046875-58.98 -67.7698046875-58.03Q-69.0198046875-57.08 -69.8498046875-55.37L-69.8498046875-55.37L-69.8498046875 0L-82.1998046875 0ZM-49.0032421875 0L-49.0032421875-6.15L-30.1532421875-57.86L-47.3832421875-57.86L-47.3832421875-67.24L-16.9232421875-67.24L-16.9232421875-61.08L-35.8132421875-9.38L-16.8232421875-9.38L-16.8232421875 0L-49.0032421875 0ZM-9.3970703125 0L-9.3970703125-88.82L 2.9529296874999993-88.82L 2.9529296874999993-73L 2.3229296875000003-61.47Q 3.6829296874999997-63.38  5.2729296875-64.62Q 6.862929687499999-65.87  8.5429296875-66.63Q 10.2329296875-67.38  11.9629296875-67.7Q 13.692929687500001-68.02  15.402929687499999-68.02L 15.402929687499999-68.02Q 21.312929687500002-68.02  24.512929687499998-63.89Q 27.7129296875-59.77  27.7129296875-51.51L 27.7129296875-51.51L 27.7129296875 0L 15.352929687500001 0L 15.352929687500001-51.07Q 15.352929687500001-55.52  13.992929687499998-57.25Q 12.622929687500001-58.98  9.9829296875-58.98L 9.9829296875-58.98Q 8.132929687499999-58.98  6.2529296875-57.74Q 4.372929687500001-56.49  2.9529296874999993-54.3L 2.9529296874999993-54.3L 2.9529296874999993 0L-9.3970703125 0ZM 49.7852734375 0.73L 49.7852734375 0.73Q 46.6552734375 0.73  44.2352734375-0.51Q 41.8252734375-1.76  40.1652734375-3.91Q 38.5052734375-6.05  37.6452734375-9.01Q 36.7952734375-11.96  36.7952734375-15.43L 36.7952734375-15.43Q 36.7952734375-19.58  37.8152734375-22.8Q 38.8452734375-26.03  40.8252734375-28.61Q 42.7952734375-31.2  45.7252734375-33.33Q 48.6552734375-35.45  52.5152734375-37.35L 52.5152734375-37.35Q 54.3652734375-38.28  56.6852734375-39.23Q 59.0052734375-40.19  60.8152734375-40.87L 60.8152734375-40.87L 60.8152734375-49.76Q 60.8152734375-51.71  60.665273437500005-53.39Q 60.525273437500005-55.08  59.9652734375-56.32Q 59.395273437499995-57.57  58.275273437500005-58.28Q 57.1552734375-58.98  55.1952734375-58.98L 55.1952734375-58.98Q 53.885273437500004-58.98  52.635273437500004-58.5Q 51.395273437499995-58.01  50.4352734375-56.84Q 49.4852734375-55.66  48.925273437499996-53.71Q 48.3652734375-51.76  48.3652734375-48.88L 48.3652734375-48.88L 48.3652734375-45.95L 38.9452734375-45.95Q 38.5052734375-47.85  38.2852734375-49.44Q 38.0652734375-51.03  38.0652734375-52.59L 38.0652734375-52.59Q 38.0652734375-56.35  39.3552734375-59.23Q 40.6452734375-62.11  42.9652734375-64.06Q 45.2852734375-66.02  48.5152734375-67.02Q 51.7352734375-68.02  55.5952734375-68.02L 55.5952734375-68.02Q 60.6152734375-68.02  63.9452734375-66.92Q 67.2652734375-65.82  69.2352734375-63.62Q 71.2152734375-61.43  72.0252734375-58.11Q 72.8252734375-54.79  72.8252734375-50.34L 72.8252734375-50.34L 72.8252734375 0L 63.645273437499995 0L 62.7652734375-5.76Q 60.7652734375-2.88  57.425273437499996-1.07Q 54.0752734375 0.73  49.7852734375 0.73ZM 55.2452734375-8.79L 55.2452734375-8.79Q 56.8152734375-8.79  58.3052734375-9.59Q 59.785273437499995-10.4  60.8152734375-11.57L 60.8152734375-11.57L 60.8152734375-32.62Q 59.8352734375-32.23  58.6152734375-31.69Q 57.395273437499995-31.15  55.9852734375-30.27L 55.9852734375-30.27Q 54.665273437500005-29.44  53.395273437499995-28.27Q 52.1252734375-27.1  51.1252734375-25.49Q 50.1252734375-23.88  49.5152734375-21.85Q 48.9052734375-19.82  48.9052734375-17.33L 48.9052734375-17.33Q 48.9052734375-13.48  50.415273437500005-11.13Q 51.925273437499996-8.79  55.2452734375-8.79ZM 85.6224609375 0L 85.6224609375-67.24L 95.1424609375-67.24L 96.2624609375-60.06L 96.2624609375-60.01Q 97.73246093750001-62.3  99.4124609375-63.84Q 101.1024609375-65.38  102.9024609375-66.31Q 104.7124609375-67.24  106.5924609375-67.63Q 108.4724609375-68.02  110.3224609375-68.02L 110.3224609375-68.02Q 116.23246093750001-68.02  119.4324609375-63.89Q 122.6324609375-59.77  122.6324609375-51.51L 122.6324609375-51.51L 122.6324609375 0L 110.2824609375 0L 110.2824609375-51.07Q 110.2824609375-55.52  108.9124609375-57.25Q 107.5424609375-58.98  104.9024609375-58.98L 104.9024609375-58.98Q 103.0524609375-58.98  101.2224609375-57.76Q 99.3924609375-56.54  97.9724609375-54.39L 97.9724609375-54.39L 97.9724609375 0L 85.6224609375 0Z"></path></svg>